<?xml version="1.0" standalone="no"?><svg xmlns:xlink="http://www.w3.org/1999/xlink" xmlns="http://www.w3.org/2000/svg" viewBox="0 0 1000 777.7849925609312" preserveAspectRatio="xMaxYMax slice"><g transform="scale(1.411588008277552)"><rect x="0" y="0" width="708.4285714285713" height="629.7142857142857" fill="#ffffff"/><rect x="0" y="0" width="78.71428571428571" height="78.71428571428571" fill="#ffffff"/><rect x="0" y="0" width="39.36" height="39.36" fill="#fc5f54"/><path d="M 0 0 A 39.36 39.36 0 0 1 39.36 39.36 L 0 39.36" fill="#abadc0"/><rect x="39.36" y="0" width="39.36" height="39.36" fill="#a7a9bc"/><path d="M 39.36 39.36 A 39.36 39.36 0 0 1  78.72 0 L 78.72 39.36" fill="#fc645a"/><rect x="0" y="39.36" width="39.36" height="39.36" fill="#fed0cc"/><path d="M 0 78.72 A 39.36 39.36 0 0 0 39.36 39.36 L 0 39.36" fill="#fc5b50"/><rect x="39.36" y="39.36" width="39.36" height="39.36" fill="#2a2f5e"/><path d="M 39.36 39.36 A 39.36 39.36 0 0 0 78.72 78.72 L 78.72 39.36" fill="#2a2f5e"/><rect x="78.71" y="0" width="78.71" height="78.71" fill="#fededc"/><rect x="78.71" y="0" width="78.71" height="78.71" fill="#fecbc8"/><rect x="157.42857142857142" y="0" width="78.71428571428571" height="78.71428571428571" fill="#ffffff"/><rect x="157.43" y="0" width="39.36" height="39.36" fill="#fc584d"/><polygon points="157.43,0 196.79000000000002,0 157.43,39.36" fill="#353966"/><rect x="196.79" y="0" width="39.36" height="39.36" fill="#feb9b4"/><polygon points="196.79,0 236.14999999999998,0 236.14999999999998,39.36" fill="#fd8c84"/><rect x="157.43" y="39.36" width="39.36" height="39.36" fill="#f4f4f6"/><polygon points="196.79000000000002,39.36 196.79000000000002,78.72 157.43,78.72" fill="#fec0bc"/><rect x="196.79" y="39.36" width="39.36" height="39.36" fill="#dedee6"/><polygon points="196.79,39.36 236.14999999999998,78.72 196.79,78.72" fill="#fd7970"/><rect x="236.1428571428571" y="0" width="78.71428571428571" height="78.71428571428571" fill="#ffffff"/><rect x="236.14" y="0" width="39.36" height="39.36" fill="#7b7e9b"/><path d="M 236.14 0 A 39.36 39.36 0 0 0 275.5 39.36 L 275.5 0" fill="#fd766d"/><rect x="275.5" y="0" width="39.36" height="39.36" fill="#ffe4e2"/><path d="M 275.5 39.36 A 39.36 39.36 0 0 0 314.86 0 L 275.5 0" fill="#fecdc9"/><rect x="236.14" y="39.36" width="39.36" height="39.36" fill="#b3b5c6"/><path d="M 236.14 78.72 A 39.36 39.36 0 0 1  275.5 39.36 L 275.5 78.72" fill="#feb3ae"/><rect x="275.5" y="39.36" width="39.36" height="39.36" fill="#fda49f"/><path d="M 275.5 39.36 A 39.36 39.36 0 0 1 314.86 78.72 L 275.5 78.72" fill="#feb4af"/><rect x="314.85714285714283" y="0" width="78.71428571428571" height="78.71428571428571" fill="#ffffff"/><rect x="314.86" y="0" width="39.36" height="39.36" fill="#5c6084"/><path d="M 314.86 39.36 A 39.36 39.36 0 0 1 354.22 0 L 354.22 9.84 A 29.52 29.52 0 0 0 324.7 39.36" fill="#fc6d63"/><rect x="354.21" y="0" width="39.36" height="39.36" fill="#fd9891"/><path d="M 354.21 0 A 39.36 39.36 0 0 1 393.57 39.36 L 383.72999999999996 39.36 A 29.52 29.52 0 0 0 354.21 9.84" fill="#feaea8"/><rect x="314.86" y="39.36" width="39.36" height="39.36" fill="#fecfcc"/><path d="M 314.86 39.36 A 39.36 39.36 0 0 0 354.22 78.72 L 354.22 68.88 A 29.52 29.52 0 0 1 324.7 39.36" fill="#ffe6e5"/><rect x="354.21" y="39.36" width="39.36" height="39.36" fill="#fed2cf"/><path d="M 354.21 78.72 A 39.36 39.36 0 0 0 393.57 39.36 L 383.72999999999996 39.36 A 29.52 29.52 0 0 1 354.21 68.88" fill="#b0b2c3"/><rect x="393.57" y="0" width="78.71" height="78.71" fill="#c4c6d3"/><polygon points="393.57,0 472.28,78.71 393.57,78.71" fill="#febfba"/><rect x="472.2857142857142" y="0" width="78.71428571428571" height="78.71428571428571" fill="#ffffff"/><rect x="472.29" y="0" width="39.36" height="39.36" fill="#fd9892"/><polygon points="472.29,0 511.65000000000003,0 472.29,39.36" fill="#8d90a9"/><rect x="511.64" y="0" width="39.36" height="39.36" fill="#4e5279"/><polygon points="511.64,0 551,0 551,39.36" fill="#fda6a0"/><rect x="472.29" y="39.36" width="39.36" height="39.36" fill="#feafaa"/><polygon points="472.29,39.36 511.65000000000003,78.72 472.29,78.72" fill="#fecfcc"/><rect x="511.64" y="39.36" width="39.36" height="39.36" fill="#fec5c1"/><polygon points="551,39.36 551,78.72 511.64,78.72" fill="#fc5d53"/><rect x="551" y="0" width="78.71" height="78.71" fill="#52567c"/><polygon points="551,0 629.71,78.71 551,78.71" fill="#d7d8e1"/><rect x="629.7142857142857" y="0" width="78.71428571428571" height="78.71428571428571" fill="#ffffff"/><rect x="629.71" y="0" width="39.36" height="39.36" fill="#fd756c"/><path d="M 629.71 39.36 A 39.36 39.36 0 0 0 669.07 0 L 629.71 0" fill="#2a2f5e"/><rect x="669.07" y="0" width="39.36" height="39.36" fill="#c4c5d2"/><path d="M 669.07 0 A 39.36 39.36 0 0 0 708.4300000000001 39.36 L 708.4300000000001 0" fill="#9c9fb4"/><rect x="629.71" y="39.36" width="39.36" height="39.36" fill="#fda59f"/><path d="M 629.71 39.36 A 39.36 39.36 0 0 1 669.07 78.72 L 629.71 78.72" fill="#fd9a93"/><rect x="669.07" y="39.36" width="39.36" height="39.36" fill="#d2d3dd"/><path d="M 669.07 78.72 A 39.36 39.36 0 0 1  708.4300000000001 39.36 L 708.4300000000001 78.72" fill="#8d8fa9"/><rect x="0" y="78.71428571428571" width="78.71428571428571" height="78.71428571428571" fill="#ffffff"/><rect x="0" y="78.71" width="39.36" height="39.36" fill="#dfe0e7"/><path d="M 0 78.71 A 39.36 39.36 0 0 1 39.36 118.07 L 0 118.07" fill="#b6b8c8"/><rect x="39.36" y="78.71" width="39.36" height="39.36" fill="#8285a0"/><path d="M 39.36 118.07 A 39.36 39.36 0 0 1  78.72 78.71 L 78.72 118.07" fill="#fed5d2"/><rect x="0" y="118.07" width="39.36" height="39.36" fill="#fda9a4"/><path d="M 0 157.43 A 39.36 39.36 0 0 0 39.36 118.07 L 0 118.07" fill="#febcb8"/><rect x="39.36" y="118.07" width="39.36" height="39.36" fill="#fd7a72"/><path d="M 39.36 118.07 A 39.36 39.36 0 0 0 78.72 157.43 L 78.72 118.07" fill="#fd867e"/><rect x="78.71" y="78.71" width="78.71" height="78.71" fill="#fd9a93"/><rect x="78.71" y="78.71" width="78.71" height="78.71" fill="#fd857d"/><rect x="157.42857142857142" y="78.71428571428571" width="78.71428571428571" height="78.71428571428571" fill="#ffffff"/><rect x="157.43" y="78.71" width="39.36" height="39.36" fill="#caccd7"/><polygon points="157.43,78.71 196.79000000000002,78.71 157.43,118.07" fill="#3c406b"/><rect x="196.79" y="78.71" width="39.36" height="39.36" fill="#fec1bc"/><polygon points="236.14999999999998,78.71 236.14999999999998,118.07 196.79,118.07" fill="#6f7292"/><rect x="157.43" y="118.07" width="39.36" height="39.36" fill="#cfd0da"/><polygon points="157.43,118.07 196.79000000000002,118.07 196.79000000000002,157.43" fill="#fc6f66"/><rect x="196.79" y="118.07" width="39.36" height="39.36" fill="#fed5d2"/><polygon points="196.79,118.07 236.14999999999998,157.43 196.79,157.43" fill="#363b67"/><rect x="236.14" y="78.71" width="78.71" height="78.71" fill="#feb3ae"/><polygon points="314.84999999999997,78.71 314.84999999999997,157.42 236.14,157.42" fill="#fd9b95"/><rect x="314.85714285714283" y="78.71428571428571" width="78.71428571428571" height="78.71428571428571" fill="#ffffff"/><rect x="314.86" y="78.71" width="39.36" height="39.36" fill="#5f6386"/><polygon points="314.86,78.71 354.22,78.71 314.86,118.07" fill="#6c7090"/><rect x="354.21" y="78.71" width="39.36" height="39.36" fill="#727695"/><polygon points="393.57,78.71 393.57,118.07 354.21,118.07" fill="#e1e1e8"/><rect x="314.86" y="118.07" width="39.36" height="39.36" fill="#4e5279"/><polygon points="314.86,118.07 354.22,118.07 354.22,157.43" fill="#febab5"/><rect x="354.21" y="118.07" width="39.36" height="39.36" fill="#fff7f6"/><polygon points="354.21,118.07 393.57,157.43 354.21,157.43" fill="#bebfce"/><rect x="393.57142857142856" y="78.71428571428571" width="78.71428571428571" height="78.71428571428571" fill="#ffffff"/><rect x="393.57" y="78.71" width="39.36" height="39.36" fill="#fda39d"/><circle cx="413.25" cy="98.38999999999999" r="19.68" fill="#787b99"/><rect x="432.93" y="78.71" width="39.36" height="39.36" fill="#fc5f54"/><rect x="432.93" y="78.71" width="39.36" height="39.36" fill="#fd9891"/><rect x="393.57" y="118.07" width="39.36" height="39.36" fill="#65688a"/><circle cx="413.25" cy="137.75" r="19.68" fill="#fecac7"/><rect x="432.93" y="118.07" width="39.36" height="39.36" fill="#282d5c"/><rect x="432.93" y="118.07" width="39.36" height="39.36" fill="#494d75"/><rect x="472.2857142857142" y="78.71428571428571" width="78.71428571428571" height="78.71428571428571" fill="#ffffff"/><rect x="472.29" y="78.71" width="39.36" height="39.36" fill="#fc5d52"/><polygon points="472.29,78.71 511.65000000000003,78.71 472.29,118.07" fill="#4a4e76"/><rect x="511.64" y="78.71" width="39.36" height="39.36" fill="#feb1ac"/><polygon points="551,78.71 551,118.07 511.64,118.07" fill="#fc5f55"/><rect x="472.29" y="118.07" width="39.36" height="39.36" fill="#fd9089"/><polygon points="472.29,118.07 511.65000000000003,118.07 511.65000000000003,157.43" fill="#e9eaef"/><rect x="511.64" y="118.07" width="39.36" height="39.36" fill="#fd9088"/><polygon points="511.64,118.07 551,157.43 511.64,157.43" fill="#fc6b61"/><rect x="551" y="78.71" width="78.71" height="78.71" fill="#fd8d86"/><polygon points="551,78.71 629.71,78.71 551,157.42" fill="#3f446e"/><rect x="629.7142857142857" y="78.71428571428571" width="78.71428571428571" height="78.71428571428571" fill="#ffffff"/><rect x="629.71" y="78.71" width="39.36" height="39.36" fill="#4d5178"/><polygon points="629.71,78.71 669.07,78.71 629.71,118.07" fill="#9fa1b6"/><rect x="669.07" y="78.71" width="39.36" height="39.36" fill="#989ab1"/><polygon points="669.07,78.71 708.4300000000001,78.71 708.4300000000001,118.07" fill="#cfd0da"/><rect x="629.71" y="118.07" width="39.36" height="39.36" fill="#6a6e8e"/><polygon points="629.71,118.07 669.07,157.43 629.71,157.43" fill="#fdaaa4"/><rect x="669.07" y="118.07" width="39.36" height="39.36" fill="#9b9db3"/><polygon points="708.4300000000001,118.07 708.4300000000001,157.43 669.07,157.43" fill="#2f3462"/><rect x="0" y="157.42857142857142" width="78.71428571428571" height="78.71428571428571" fill="#ffffff"/><rect x="0" y="157.43" width="39.36" height="39.36" fill="#747796"/><circle cx="19.68" cy="177.11" r="19.68" fill="#9193ac"/><rect x="39.36" y="157.43" width="39.36" height="39.36" fill="#9093ab"/><rect x="39.36" y="157.43" width="39.36" height="39.36" fill="#252a5a"/><rect x="0" y="196.79" width="39.36" height="39.36" fill="#3b406b"/><circle cx="19.68" cy="216.47" r="19.68" fill="#fffcfb"/><rect x="39.36" y="196.79" width="39.36" height="39.36" fill="#c0c1cf"/><rect x="39.36" y="196.79" width="39.36" height="39.36" fill="#b8bac9"/><rect x="78.71428571428571" y="157.42857142857142" width="78.71428571428571" height="78.71428571428571" fill="#ffffff"/><rect x="78.71" y="157.43" width="39.36" height="39.36" fill="#fd8078"/><circle cx="98.38999999999999" cy="177.11" r="19.68" fill="#fd8981"/><rect x="118.07" y="157.43" width="39.36" height="39.36" fill="#fec4c0"/><rect x="118.07" y="157.43" width="39.36" height="39.36" fill="#888ba5"/><rect x="78.71" y="196.79" width="39.36" height="39.36" fill="#fd847c"/><circle cx="98.38999999999999" cy="216.47" r="19.68" fill="#fedcda"/><rect x="118.07" y="196.79" width="39.36" height="39.36" fill="#fec1bd"/><rect x="118.07" y="196.79" width="39.36" height="39.36" fill="#fed7d4"/><rect x="157.43" y="157.43" width="78.71" height="78.71" fill="#fc6e64"/><polygon points="236.14,157.43 236.14,236.14 157.43,236.14" fill="#adafc1"/><rect x="236.14" y="157.43" width="78.71" height="78.71" fill="#fed1ce"/><path d="M 236.14 157.43 A 78.71 78.71 0 0 1  314.84999999999997 236.14 L 236.14 157.43 A 78.71 78.71 0 0 0 314.84999999999997 236.14" fill="#fff0ef"/><rect x="314.86" y="157.43" width="78.71" height="78.71" fill="#fec5c1"/><path d="M 314.86 157.43 A 78.71 78.71 0 0 1  393.57 236.14 L 314.86 157.43 A 78.71 78.71 0 0 0 393.57 236.14" fill="#fc6f65"/><rect x="393.57142857142856" y="157.42857142857142" width="78.71428571428571" height="78.71428571428571" fill="#ffffff"/><rect x="393.57" y="157.43" width="39.36" height="39.36" fill="#ffe4e3"/><polygon points="393.57,157.43 432.93,157.43 393.57,196.79000000000002" fill="#fc6c62"/><rect x="432.93" y="157.43" width="39.36" height="39.36" fill="#fd918a"/><polygon points="472.29,157.43 472.29,196.79000000000002 432.93,196.79000000000002" fill="#feada7"/><rect x="393.57" y="196.79" width="39.36" height="39.36" fill="#54587d"/><polygon points="393.57,196.79 432.93,196.79 432.93,236.14999999999998" fill="#feada7"/><rect x="432.93" y="196.79" width="39.36" height="39.36" fill="#454972"/><polygon points="432.93,196.79 472.29,236.14999999999998 432.93,236.14999999999998" fill="#fd8078"/><rect x="472.2857142857142" y="157.42857142857142" width="78.71428571428571" height="78.71428571428571" fill="#ffffff"/><rect x="472.29" y="157.43" width="39.36" height="39.36" fill="#fedfdd"/><path d="M 472.29 196.79000000000002 A 39.36 39.36 0 0 1  511.65000000000003 157.43 L 511.65000000000003 196.79000000000002" fill="#ffedec"/><rect x="511.64" y="157.43" width="39.36" height="39.36" fill="#fd7a71"/><path d="M 511.64 157.43 A 39.36 39.36 0 0 1 551 196.79000000000002 L 511.64 196.79000000000002" fill="#5f6386"/><rect x="472.29" y="196.79" width="39.36" height="39.36" fill="#f5f5f8"/><path d="M 472.29 196.79 A 39.36 39.36 0 0 0 511.65000000000003 236.14999999999998 L 511.65000000000003 196.79" fill="#fc655b"/><rect x="511.64" y="196.79" width="39.36" height="39.36" fill="#f5f5f8"/><path d="M 511.64 236.14999999999998 A 39.36 39.36 0 0 0 551 196.79 L 511.64 196.79" fill="#9d9fb5"/><rect x="551" y="157.43" width="78.71" height="78.71" fill="#fd837b"/><path d="M 551 157.43 A 78.71 78.71 0 0 1  629.71 236.14 L 551 157.43 A 78.71 78.71 0 0 0 629.71 236.14" fill="#8385a1"/><rect x="629.7142857142857" y="157.42857142857142" width="78.71428571428571" height="78.71428571428571" fill="#ffffff"/><rect x="629.71" y="157.43" width="39.36" height="39.36" fill="#fc6055"/><polygon points="629.71,157.43 669.07,157.43 629.71,196.79000000000002" fill="#fd9790"/><rect x="669.07" y="157.43" width="39.36" height="39.36" fill="#ffe7e6"/><polygon points="708.4300000000001,157.43 708.4300000000001,196.79000000000002 669.07,196.79000000000002" fill="#464a73"/><rect x="629.71" y="196.79" width="39.36" height="39.36" fill="#f1f2f5"/><polygon points="629.71,196.79 669.07,196.79 669.07,236.14999999999998" fill="#a3a5b9"/><rect x="669.07" y="196.79" width="39.36" height="39.36" fill="#b5b7c7"/><polygon points="669.07,196.79 708.4300000000001,236.14999999999998 669.07,236.14999999999998" fill="#8d90a9"/><rect x="0" y="236.1428571428571" width="78.71428571428571" height="78.71428571428571" fill="#ffffff"/><rect x="0" y="236.14" width="39.36" height="39.36" fill="#5f6286"/><path d="M 0 275.5 A 39.36 39.36 0 0 1 39.36 236.14 L 39.36 245.98 A 29.52 29.52 0 0 0 9.84 275.5" fill="#feaea9"/><rect x="39.36" y="236.14" width="39.36" height="39.36" fill="#d9dae2"/><path d="M 39.36 236.14 A 39.36 39.36 0 0 1 78.72 275.5 L 68.88 275.5 A 29.52 29.52 0 0 0 39.36 245.98" fill="#feb1ac"/><rect x="0" y="275.5" width="39.36" height="39.36" fill="#feccc8"/><path d="M 0 275.5 A 39.36 39.36 0 0 0 39.36 314.86 L 39.36 305.02 A 29.52 29.52 0 0 1 9.84 275.5" fill="#fd8a82"/><rect x="39.36" y="275.5" width="39.36" height="39.36" fill="#feb2ad"/><path d="M 39.36 314.86 A 39.36 39.36 0 0 0 78.72 275.5 L 68.88 275.5 A 29.52 29.52 0 0 1 39.36 305.02" fill="#eeeff2"/><rect x="78.71" y="236.14" width="78.71" height="78.71" fill="#f3f4f6"/><rect x="78.71" y="236.14" width="78.71" height="78.71" fill="#53577d"/><rect x="157.43" y="236.14" width="78.71" height="78.71" fill="#313663"/><rect x="157.43" y="236.14" width="78.71" height="78.71" fill="#5a5e82"/><rect x="236.1428571428571" y="236.1428571428571" width="78.71428571428571" height="78.71428571428571" fill="#ffffff"/><rect x="236.14" y="236.14" width="39.36" height="39.36" fill="#fd8982"/><polygon points="236.14,236.14 275.5,236.14 236.14,275.5" fill="#fed5d3"/><rect x="275.5" y="236.14" width="39.36" height="39.36" fill="#fcfcfd"/><polygon points="275.5,236.14 314.86,236.14 314.86,275.5" fill="#bdbfcd"/><rect x="236.14" y="275.5" width="39.36" height="39.36" fill="#fd877f"/><polygon points="275.5,275.5 275.5,314.86 236.14,314.86" fill="#feada8"/><rect x="275.5" y="275.5" width="39.36" height="39.36" fill="#ffe5e3"/><polygon points="275.5,275.5 314.86,314.86 275.5,314.86" fill="#595d82"/><rect x="314.86" y="236.14" width="78.71" height="78.71" fill="#5e6286"/><polygon points="314.86,236.14 393.57,236.14 393.57,314.84999999999997" fill="#777a98"/><rect x="393.57" y="236.14" width="78.71" height="78.71" fill="#383c68"/><polygon points="393.57,236.14 472.28,236.14 393.57,314.84999999999997" fill="#fda39d"/><rect x="472.2857142857142" y="236.1428571428571" width="78.71428571428571" height="78.71428571428571" fill="#ffffff"/><rect x="472.29" y="236.14" width="39.36" height="39.36" fill="#e1e2e8"/><path d="M 472.29 275.5 A 39.36 39.36 0 0 1 511.65000000000003 236.14 L 511.65000000000003 245.98 A 29.52 29.52 0 0 0 482.13 275.5" fill="#fd9e97"/><rect x="511.64" y="236.14" width="39.36" height="39.36" fill="#fdaaa4"/><path d="M 511.64 236.14 A 39.36 39.36 0 0 1 551 275.5 L 541.16 275.5 A 29.52 29.52 0 0 0 511.64 245.98" fill="#fff5f4"/><rect x="472.29" y="275.5" width="39.36" height="39.36" fill="#fc5e54"/><path d="M 472.29 275.5 A 39.36 39.36 0 0 0 511.65000000000003 314.86 L 511.65000000000003 305.02 A 29.52 29.52 0 0 1 482.13 275.5" fill="#f2f3f5"/><rect x="511.64" y="275.5" width="39.36" height="39.36" fill="#fda7a1"/><path d="M 511.64 314.86 A 39.36 39.36 0 0 0 551 275.5 L 541.16 275.5 A 29.52 29.52 0 0 1 511.64 305.02" fill="#fd9089"/><rect x="551" y="236.14" width="78.71" height="78.71" fill="#2f3461"/><polygon points="629.71,236.14 629.71,314.84999999999997 551,314.84999999999997" fill="#8385a1"/><rect x="629.71" y="236.14" width="78.71" height="78.71" fill="#ffebea"/><polygon points="629.71,236.14 708.4200000000001,236.14 708.4200000000001,314.84999999999997" fill="#ffe4e2"/><rect x="0" y="314.86" width="78.71" height="78.71" fill="#fda9a3"/><path d="M 0 314.86 A 78.71 78.71 0 0 1 78.71 393.57 L 0 393.57" fill="#fff8f8"/><rect x="78.71" y="314.86" width="78.71" height="78.71" fill="#b8baca"/><path d="M 78.71 393.57 A 78.71 78.71 0 0 1  157.42 314.86 L 78.71 393.57 A 78.71 78.71 0 0 0 157.42 314.86" fill="#4d5178"/><rect x="157.42857142857142" y="314.85714285714283" width="78.71428571428571" height="78.71428571428571" fill="#ffffff"/><rect x="157.43" y="314.86" width="39.36" height="39.36" fill="#fc675d"/><path d="M 157.43 354.22 A 39.36 39.36 0 0 0 196.79000000000002 314.86 L 157.43 314.86" fill="#fc6e64"/><rect x="196.79" y="314.86" width="39.36" height="39.36" fill="#fff0ef"/><path d="M 196.79 314.86 A 39.36 39.36 0 0 0 236.14999999999998 354.22 L 236.14999999999998 314.86" fill="#f8f8f9"/><rect x="157.43" y="354.21" width="39.36" height="39.36" fill="#9a9cb2"/><path d="M 157.43 354.21 A 39.36 39.36 0 0 1 196.79000000000002 393.57 L 157.43 393.57" fill="#e4e5eb"/><rect x="196.79" y="354.21" width="39.36" height="39.36" fill="#fc645a"/><path d="M 196.79 393.57 A 39.36 39.36 0 0 1  236.14999999999998 354.21 L 236.14999999999998 393.57" fill="#65688a"/><rect x="236.1428571428571" y="314.85714285714283" width="78.71428571428571" height="78.71428571428571" fill="#ffffff"/><rect x="236.14" y="314.86" width="39.36" height="39.36" fill="#8588a3"/><path d="M 236.14 314.86 A 39.36 39.36 0 0 0 275.5 354.22 L 275.5 314.86" fill="#bdbfcd"/><rect x="275.5" y="314.86" width="39.36" height="39.36" fill="#fed5d2"/><path d="M 275.5 354.22 A 39.36 39.36 0 0 0 314.86 314.86 L 275.5 314.86" fill="#52567c"/><rect x="236.14" y="354.21" width="39.36" height="39.36" fill="#80839f"/><path d="M 236.14 393.57 A 39.36 39.36 0 0 1  275.5 354.21 L 275.5 393.57" fill="#fd827a"/><rect x="275.5" y="354.21" width="39.36" height="39.36" fill="#fec9c5"/><path d="M 275.5 354.21 A 39.36 39.36 0 0 1 314.86 393.57 L 275.5 393.57" fill="#c3c5d2"/><rect x="314.86" y="314.86" width="78.71" height="78.71" fill="#fc685f"/><rect x="314.86" y="314.86" width="78.71" height="78.71" fill="#e6e6ec"/><rect x="393.57142857142856" y="314.85714285714283" width="78.71428571428571" height="78.71428571428571" fill="#ffffff"/><rect x="393.57" y="314.86" width="39.36" height="39.36" fill="#fec2be"/><path d="M 393.57 314.86 A 39.36 39.36 0 0 1 432.93 354.22 L 393.57 354.22" fill="#fd7870"/><rect x="432.93" y="314.86" width="39.36" height="39.36" fill="#fda29c"/><path d="M 432.93 354.22 A 39.36 39.36 0 0 1  472.29 314.86 L 472.29 354.22" fill="#fec9c5"/><rect x="393.57" y="354.21" width="39.36" height="39.36" fill="#efeff3"/><path d="M 393.57 393.57 A 39.36 39.36 0 0 0 432.93 354.21 L 393.57 354.21" fill="#fc5d52"/><rect x="432.93" y="354.21" width="39.36" height="39.36" fill="#686c8d"/><path d="M 432.93 354.21 A 39.36 39.36 0 0 0 472.29 393.57 L 472.29 354.21" fill="#ccced9"/><rect x="472.2857142857142" y="314.85714285714283" width="78.71428571428571" height="78.71428571428571" fill="#ffffff"/><rect x="472.29" y="314.86" width="39.36" height="39.36" fill="#f1f2f5"/><polygon points="472.29,314.86 511.65000000000003,314.86 472.29,354.22" fill="#9ea0b6"/><rect x="511.64" y="314.86" width="39.36" height="39.36" fill="#fd877f"/><polygon points="511.64,314.86 551,314.86 551,354.22" fill="#d2d3dd"/><rect x="472.29" y="354.21" width="39.36" height="39.36" fill="#fff9f9"/><polygon points="511.65000000000003,354.21 511.65000000000003,393.57 472.29,393.57" fill="#fff8f7"/><rect x="511.64" y="354.21" width="39.36" height="39.36" fill="#2c305f"/><polygon points="511.64,354.21 551,393.57 511.64,393.57" fill="#fc6f65"/><rect x="551" y="314.85714285714283" width="78.71428571428571" height="78.71428571428571" fill="#ffffff"/><rect x="551" y="314.86" width="39.36" height="39.36" fill="#51557b"/><path d="M 551 314.86 A 39.36 39.36 0 0 0 590.36 354.22 L 590.36 314.86" fill="#737695"/><rect x="590.36" y="314.86" width="39.36" height="39.36" fill="#444871"/><path d="M 590.36 354.22 A 39.36 39.36 0 0 0 629.72 314.86 L 590.36 314.86" fill="#444871"/><rect x="551" y="354.21" width="39.36" height="39.36" fill="#d5d6df"/><path d="M 551 393.57 A 39.36 39.36 0 0 1  590.36 354.21 L 590.36 393.57" fill="#fd8b84"/><rect x="590.36" y="354.21" width="39.36" height="39.36" fill="#fecfcc"/><path d="M 590.36 354.21 A 39.36 39.36 0 0 1 629.72 393.57 L 590.36 393.57" fill="#fc6e65"/><rect x="629.7142857142857" y="314.85714285714283" width="78.71428571428571" height="78.71428571428571" fill="#ffffff"/><rect x="629.71" y="314.86" width="39.36" height="39.36" fill="#fc6e65"/><path d="M 629.71 354.22 A 39.36 39.36 0 0 1  669.07 314.86 L 669.07 354.22" fill="#fff0ef"/><rect x="669.07" y="314.86" width="39.36" height="39.36" fill="#bebfce"/><path d="M 669.07 314.86 A 39.36 39.36 0 0 1 708.4300000000001 354.22 L 669.07 354.22" fill="#6d7090"/><rect x="629.71" y="354.21" width="39.36" height="39.36" fill="#fededb"/><path d="M 629.71 354.21 A 39.36 39.36 0 0 0 669.07 393.57 L 669.07 354.21" fill="#fc5c52"/><rect x="669.07" y="354.21" width="39.36" height="39.36" fill="#fc5c51"/><path d="M 669.07 393.57 A 39.36 39.36 0 0 0 708.4300000000001 354.21 L 669.07 354.21" fill="#ffe7e5"/><rect x="0" y="393.57" width="78.71" height="78.71" fill="#fd9b95"/><rect x="0" y="393.57" width="78.71" height="78.71" fill="#fc7269"/><rect x="78.71428571428571" y="393.57142857142856" width="78.71428571428571" height="78.71428571428571" fill="#ffffff"/><rect x="78.71" y="393.57" width="39.36" height="39.36" fill="#5e6185"/><path d="M 78.71 432.93 A 39.36 39.36 0 0 1 118.07 393.57 L 118.07 403.40999999999997 A 29.52 29.52 0 0 0 88.55 432.93" fill="#fecbc8"/><rect x="118.07" y="393.57" width="39.36" height="39.36" fill="#fd8b83"/><path d="M 118.07 393.57 A 39.36 39.36 0 0 1 157.43 432.93 L 147.59 432.93 A 29.52 29.52 0 0 0 118.07 403.40999999999997" fill="#fc5f55"/><rect x="78.71" y="432.93" width="39.36" height="39.36" fill="#fda8a2"/><path d="M 78.71 432.93 A 39.36 39.36 0 0 0 118.07 472.29 L 118.07 462.45 A 29.52 29.52 0 0 1 88.55 432.93" fill="#fd8880"/><rect x="118.07" y="432.93" width="39.36" height="39.36" fill="#afb1c3"/><path d="M 118.07 472.29 A 39.36 39.36 0 0 0 157.43 432.93 L 147.59 432.93 A 29.52 29.52 0 0 1 118.07 462.45" fill="#febbb6"/><rect x="157.43" y="393.57" width="78.71" height="78.71" fill="#ffeeed"/><rect x="157.43" y="393.57" width="78.71" height="78.71" fill="#fd9892"/><rect x="236.14" y="393.57" width="78.71" height="78.71" fill="#3e426d"/><polygon points="314.84999999999997,393.57 314.84999999999997,472.28 236.14,472.28" fill="#9a9db3"/><rect x="314.86" y="393.57" width="78.71" height="78.71" fill="#3f446e"/><polygon points="314.86,393.57 393.57,472.28 314.86,472.28" fill="#717594"/><rect x="393.57142857142856" y="393.57142857142856" width="78.71428571428571" height="78.71428571428571" fill="#ffffff"/><rect x="393.57" y="393.57" width="39.36" height="39.36" fill="#fd7b72"/><polygon points="393.57,393.57 432.93,393.57 393.57,432.93" fill="#6f7392"/><rect x="432.93" y="393.57" width="39.36" height="39.36" fill="#2a2f5e"/><polygon points="432.93,393.57 472.29,393.57 472.29,432.93" fill="#373b67"/><rect x="393.57" y="432.93" width="39.36" height="39.36" fill="#babbca"/><polygon points="432.93,432.93 432.93,472.29 393.57,472.29" fill="#8e90a9"/><rect x="432.93" y="432.93" width="39.36" height="39.36" fill="#a0a2b7"/><polygon points="432.93,432.93 472.29,472.29 432.93,472.29" fill="#fed7d4"/><rect x="472.2857142857142" y="393.57142857142856" width="78.71428571428571" height="78.71428571428571" fill="#ffffff"/><rect x="472.29" y="393.57" width="39.36" height="39.36" fill="#fd847c"/><path d="M 472.29 432.93 A 39.36 39.36 0 0 1  511.65000000000003 393.57 L 511.65000000000003 432.93" fill="#efeff3"/><rect x="511.64" y="393.57" width="39.36" height="39.36" fill="#fffefe"/><path d="M 511.64 393.57 A 39.36 39.36 0 0 1 551 432.93 L 511.64 432.93" fill="#d5d6df"/><rect x="472.29" y="432.93" width="39.36" height="39.36" fill="#fd8f87"/><path d="M 472.29 432.93 A 39.36 39.36 0 0 0 511.65000000000003 472.29 L 511.65000000000003 432.93" fill="#fd9d96"/><rect x="511.64" y="432.93" width="39.36" height="39.36" fill="#fec2be"/><path d="M 511.64 472.29 A 39.36 39.36 0 0 0 551 432.93 L 511.64 432.93" fill="#fc655a"/><rect x="551" y="393.57" width="78.71" height="78.71" fill="#feaca7"/><path d="M 551 393.57 A 78.71 78.71 0 0 0 629.71 472.28 L 629.71 393.57" fill="#8b8da7"/><rect x="629.71" y="393.57" width="78.71" height="78.71" fill="#fc736a"/><polygon points="629.71,393.57 708.4200000000001,393.57 629.71,472.28" fill="#363a67"/><rect x="0" y="472.29" width="78.71" height="78.71" fill="#fffdfc"/><polygon points="0,472.29 78.71,472.29 0,551" fill="#c3c4d1"/><rect x="78.71" y="472.29" width="78.71" height="78.71" fill="#fedad8"/><polygon points="78.71,472.29 157.42,551 78.71,551" fill="#b2b4c5"/><rect x="157.42857142857142" y="472.2857142857142" width="78.71428571428571" height="78.71428571428571" fill="#ffffff"/><rect x="157.43" y="472.29" width="39.36" height="39.36" fill="#feb6b2"/><path d="M 157.43 472.29 A 39.36 39.36 0 0 1 196.79000000000002 511.65000000000003 L 157.43 511.65000000000003" fill="#5b5f83"/><rect x="196.79" y="472.29" width="39.36" height="39.36" fill="#e2e3e9"/><path d="M 196.79 511.65000000000003 A 39.36 39.36 0 0 1  236.14999999999998 472.29 L 236.14999999999998 511.65000000000003" fill="#e6e6ec"/><rect x="157.43" y="511.64" width="39.36" height="39.36" fill="#feb8b3"/><path d="M 157.43 551 A 39.36 39.36 0 0 0 196.79000000000002 511.64 L 157.43 511.64" fill="#fd8f88"/><rect x="196.79" y="511.64" width="39.36" height="39.36" fill="#fda49e"/><path d="M 196.79 511.64 A 39.36 39.36 0 0 0 236.14999999999998 551 L 236.14999999999998 511.64" fill="#aeb0c2"/><rect x="236.14" y="472.29" width="78.71" height="78.71" fill="#9597af"/><polygon points="314.84999999999997,472.29 314.84999999999997,551 236.14,551" fill="#fecfcc"/><rect x="314.85714285714283" y="472.2857142857142" width="78.71428571428571" height="78.71428571428571" fill="#ffffff"/><rect x="314.86" y="472.29" width="39.36" height="39.36" fill="#fdaba6"/><polygon points="314.86,472.29 354.22,472.29 314.86,511.65000000000003" fill="#313663"/><rect x="354.21" y="472.29" width="39.36" height="39.36" fill="#dbdce4"/><polygon points="354.21,472.29 393.57,472.29 393.57,511.65000000000003" fill="#bcbecd"/><rect x="314.86" y="511.64" width="39.36" height="39.36" fill="#fdaaa5"/><polygon points="314.86,511.64 354.22,551 314.86,551" fill="#fed4d1"/><rect x="354.21" y="511.64" width="39.36" height="39.36" fill="#fed3d0"/><polygon points="393.57,511.64 393.57,551 354.21,551" fill="#fda59f"/><rect x="393.57142857142856" y="472.2857142857142" width="78.71428571428571" height="78.71428571428571" fill="#ffffff"/><rect x="393.57" y="472.29" width="39.36" height="39.36" fill="#616588"/><path d="M 393.57 472.29 A 39.36 39.36 0 0 0 432.93 511.65000000000003 L 432.93 472.29" fill="#282d5c"/><rect x="432.93" y="472.29" width="39.36" height="39.36" fill="#fd8880"/><path d="M 432.93 511.65000000000003 A 39.36 39.36 0 0 0 472.29 472.29 L 432.93 472.29" fill="#febbb7"/><rect x="393.57" y="511.64" width="39.36" height="39.36" fill="#fda8a3"/><path d="M 393.57 551 A 39.36 39.36 0 0 1  432.93 511.64 L 432.93 551" fill="#abadbf"/><rect x="432.93" y="511.64" width="39.36" height="39.36" fill="#fc6d64"/><path d="M 432.93 511.64 A 39.36 39.36 0 0 1 472.29 551 L 432.93 551" fill="#757897"/><rect x="472.29" y="472.29" width="78.71" height="78.71" fill="#fff6f6"/><polygon points="472.29,472.29 551,551 472.29,551" fill="#adafc1"/><rect x="551" y="472.2857142857142" width="78.71428571428571" height="78.71428571428571" fill="#ffffff"/><rect x="551" y="472.29" width="39.36" height="39.36" fill="#fec8c4"/><path d="M 551 511.65000000000003 A 39.36 39.36 0 0 1  590.36 472.29 L 590.36 511.65000000000003" fill="#4c5077"/><rect x="590.36" y="472.29" width="39.36" height="39.36" fill="#f6f6f8"/><path d="M 590.36 472.29 A 39.36 39.36 0 0 1 629.72 511.65000000000003 L 590.36 511.65000000000003" fill="#fedad8"/><rect x="551" y="511.64" width="39.36" height="39.36" fill="#ffe4e2"/><path d="M 551 511.64 A 39.36 39.36 0 0 0 590.36 551 L 590.36 511.64" fill="#ffe4e2"/><rect x="590.36" y="511.64" width="39.36" height="39.36" fill="#c6c7d4"/><path d="M 590.36 551 A 39.36 39.36 0 0 0 629.72 511.64 L 590.36 511.64" fill="#fc6d64"/><rect x="629.71" y="472.29" width="78.71" height="78.71" fill="#fda19a"/><path d="M 629.71 551 A 78.71 78.71 0 0 1  708.4200000000001 472.29 L 708.4200000000001 551" fill="#444871"/><rect x="0" y="551" width="78.71428571428571" height="78.71428571428571" fill="#ffffff"/><rect x="0" y="551" width="39.36" height="39.36" fill="#fff6f5"/><path d="M 0 590.36 A 39.36 39.36 0 0 1 39.36 551 L 39.36 560.84 A 29.52 29.52 0 0 0 9.84 590.36" fill="#9598af"/><rect x="39.36" y="551" width="39.36" height="39.36" fill="#707393"/><path d="M 39.36 551 A 39.36 39.36 0 0 1 78.72 590.36 L 68.88 590.36 A 29.52 29.52 0 0 0 39.36 560.84" fill="#b4b6c7"/><rect x="0" y="590.36" width="39.36" height="39.36" fill="#b2b4c5"/><path d="M 0 590.36 A 39.36 39.36 0 0 0 39.36 629.72 L 39.36 619.88 A 29.52 29.52 0 0 1 9.84 590.36" fill="#55597e"/><rect x="39.36" y="590.36" width="39.36" height="39.36" fill="#fc645a"/><path d="M 39.36 629.72 A 39.36 39.36 0 0 0 78.72 590.36 L 68.88 590.36 A 29.52 29.52 0 0 1 39.36 619.88" fill="#b7b9c9"/><rect x="78.71428571428571" y="551" width="78.71428571428571" height="78.71428571428571" fill="#ffffff"/><rect x="78.71" y="551" width="39.36" height="39.36" fill="#fff2f1"/><path d="M 78.71 551 A 39.36 39.36 0 0 1 118.07 590.36 L 78.71 590.36" fill="#4a4f76"/><rect x="118.07" y="551" width="39.36" height="39.36" fill="#e1e2e8"/><path d="M 118.07 590.36 A 39.36 39.36 0 0 1  157.43 551 L 157.43 590.36" fill="#fd786f"/><rect x="78.71" y="590.36" width="39.36" height="39.36" fill="#53577d"/><path d="M 78.71 629.72 A 39.36 39.36 0 0 0 118.07 590.36 L 78.71 590.36" fill="#b8b9c9"/><rect x="118.07" y="590.36" width="39.36" height="39.36" fill="#8587a2"/><path d="M 118.07 590.36 A 39.36 39.36 0 0 0 157.43 629.72 L 157.43 590.36" fill="#fed3d1"/><rect x="157.43" y="551" width="78.71" height="78.71" fill="#fd8078"/><rect x="157.43" y="551" width="78.71" height="78.71" fill="#fc746a"/><rect x="236.1428571428571" y="551" width="78.71428571428571" height="78.71428571428571" fill="#ffffff"/><rect x="236.14" y="551" width="39.36" height="39.36" fill="#fed5d2"/><path d="M 236.14 551 A 39.36 39.36 0 0 0 275.5 590.36 L 275.5 551" fill="#fff0f0"/><rect x="275.5" y="551" width="39.36" height="39.36" fill="#ffeceb"/><path d="M 275.5 590.36 A 39.36 39.36 0 0 0 314.86 551 L 275.5 551" fill="#fd9a93"/><rect x="236.14" y="590.36" width="39.36" height="39.36" fill="#feb3ae"/><path d="M 236.14 629.72 A 39.36 39.36 0 0 1  275.5 590.36 L 275.5 629.72" fill="#fedddb"/><rect x="275.5" y="590.36" width="39.36" height="39.36" fill="#575b80"/><path d="M 275.5 590.36 A 39.36 39.36 0 0 1 314.86 629.72 L 275.5 629.72" fill="#feb3ae"/><rect x="314.86" y="551" width="78.71" height="78.71" fill="#9698af"/><rect x="314.86" y="551" width="78.71" height="78.71" fill="#fd857d"/><rect x="393.57142857142856" y="551" width="78.71428571428571" height="78.71428571428571" fill="#ffffff"/><rect x="393.57" y="551" width="39.36" height="39.36" fill="#fc6d64"/><path d="M 393.57 590.36 A 39.36 39.36 0 0 0 432.93 551 L 393.57 551" fill="#feb9b4"/><rect x="432.93" y="551" width="39.36" height="39.36" fill="#edeef2"/><path d="M 432.93 551 A 39.36 39.36 0 0 0 472.29 590.36 L 472.29 551" fill="#585c81"/><rect x="393.57" y="590.36" width="39.36" height="39.36" fill="#fc594e"/><path d="M 393.57 590.36 A 39.36 39.36 0 0 1 432.93 629.72 L 393.57 629.72" fill="#52567c"/><rect x="432.93" y="590.36" width="39.36" height="39.36" fill="#fec0bc"/><path d="M 432.93 629.72 A 39.36 39.36 0 0 1  472.29 590.36 L 472.29 629.72" fill="#636789"/><rect x="472.2857142857142" y="551" width="78.71428571428571" height="78.71428571428571" fill="#ffffff"/><rect x="472.29" y="551" width="39.36" height="39.36" fill="#dedfe6"/><polygon points="472.29,551 511.65000000000003,551 472.29,590.36" fill="#8c8ea8"/><rect x="511.64" y="551" width="39.36" height="39.36" fill="#81849f"/><polygon points="511.64,551 551,551 551,590.36" fill="#8689a3"/><rect x="472.29" y="590.36" width="39.36" height="39.36" fill="#fdaba6"/><polygon points="472.29,590.36 511.65000000000003,629.72 472.29,629.72" fill="#fda19b"/><rect x="511.64" y="590.36" width="39.36" height="39.36" fill="#fed6d3"/><polygon points="551,590.36 551,629.72 511.64,629.72" fill="#fd968f"/><rect x="551" y="551" width="78.71428571428571" height="78.71428571428571" fill="#ffffff"/><rect x="551" y="551" width="39.36" height="39.36" fill="#fecfcc"/><polygon points="551,551 590.36,551 551,590.36" fill="#fed3d1"/><rect x="590.36" y="551" width="39.36" height="39.36" fill="#fecfcb"/><polygon points="590.36,551 629.72,551 629.72,590.36" fill="#9194ac"/><rect x="551" y="590.36" width="39.36" height="39.36" fill="#7a7d9b"/><polygon points="551,590.36 590.36,629.72 551,629.72" fill="#fd9c96"/><rect x="590.36" y="590.36" width="39.36" height="39.36" fill="#dbdbe3"/><polygon points="629.72,590.36 629.72,629.72 590.36,629.72" fill="#dbdbe3"/><rect x="629.71" y="551" width="78.71" height="78.71" fill="#fda39d"/><polygon points="629.71,551 708.4200000000001,629.71 629.71,629.71" fill="#feb9b5"/></g></svg>